<svg version="1.1" viewBox="0.0 0.0 960.0 720.0" fill="none" stroke="none" stroke-linecap="square" stroke-miterlimit="10" xmlns:xlink="http://www.w3.org/1999/xlink" xmlns="http://www.w3.org/2000/svg"><clipPath id="p.0"><path d="m0 0l960.0 0l0 720.0l-960.0 0l0 -720.0z" clip-rule="nonzero"/></clipPath><g clip-path="url(#p.0)"><path fill="#000000" fill-opacity="0.0" d="m0 0l960.0 0l0 720.0l-960.0 0z" fill-rule="evenodd"/><path fill="#00ff00" d="m265.2756 159.34908l429.44882 0l0 392.22052l-429.44882 0z" fill-rule="evenodd"/><path fill="#33ff33" d="m199.90552 93.979004l560.18896 0l-65.370056 65.37007l-429.44882 0z" fill-rule="evenodd"/><path fill="#00cb00" d="m199.90552 616.93964l65.37009 -65.370056l429.44882 0l65.370056 65.370056z" fill-rule="evenodd"/><path fill="#66ff66" d="m199.90552 93.979004l65.37009 65.37007l0 392.22052l-65.37009 65.370056z" fill-rule="evenodd"/><path fill="#009800" d="m760.0945 93.979004l0 522.96063l-65.370056 -65.370056l0 -392.22052z" fill-rule="evenodd"/><path fill="#000000" fill-opacity="0.0" d="m199.90552 93.979004l560.18896 0l0 522.96063l-560.18896 0zm65.37009 65.37007l429.44882 0l0 392.22052l-429.44882 0zm-65.37009 -65.37007l65.37009 65.37007m-65.37009 457.59058l65.37009 -65.370056m494.81888 -457.59058l-65.370056 65.37007m65.370056 457.59058l-65.370056 -65.370056" fill-rule="evenodd"/><path stroke="#cc0000" stroke-width="1.0" stroke-linejoin="round" stroke-linecap="butt" d="m199.90552 93.979004l560.18896 0l0 522.96063l-560.18896 0zm65.37009 65.37007l429.44882 0l0 392.22052l-429.44882 0zm-65.37009 -65.37007l65.37009 65.37007m-65.37009 457.59058l65.37009 -65.370056m494.81888 -457.59058l-65.370056 65.37007m65.370056 457.59058l-65.370056 -65.370056" fill-rule="evenodd"/><path fill="#ffd966" d="m300.8189 475.90027l-75.20474 -79.208435l0 37.602356l0 0c-100.74494 -10.90271 -180.89438 -42.852264 -211.925 -84.47858l0 0c-24.574154 32.96521 -15.81008 68.71243 24.245655 98.89401c40.05573 30.18158 107.89618 52.15506 187.67935 60.789276l0 37.602356z" fill-rule="evenodd"/><path fill="#cbad51" d="m0 387.41797l0 0c0 -69.63461 134.68121 -126.084625 300.8189 -126.084625l0 -75.20473l0 0c-166.1377 0 -300.8189 56.450012 -300.8189 126.08464z" fill-rule="evenodd"/><path fill="#000000" fill-opacity="0.0" d="m0 387.41797l0 0c0 -69.63461 134.68121 -126.084625 300.8189 -126.084625l0 -75.20473l0 0c-166.1377 0 -300.8189 56.450012 -300.8189 126.08464l-7.6388006E-14 75.20471l0 0c0 57.494385 92.79708 107.70734 225.61417 122.08093l0 37.602356l75.20474 -71.20099l-75.20474 -79.208435l0 37.602356l0 0c-100.74494 -10.90271 -180.89438 -42.852264 -211.925 -84.47858" fill-rule="evenodd"/><path stroke="#cc0000" stroke-width="1.0" stroke-linejoin="round" stroke-linecap="butt" d="m0 387.41797l0 0c0 -69.63461 134.68121 -126.084625 300.8189 -126.084625l0 -75.20473l0 0c-166.1377 0 -300.8189 56.450012 -300.8189 126.08464l-7.6388006E-14 75.20471l0 0c0 57.494385 92.79708 107.70734 225.61417 122.08093l0 37.602356l75.20474 -71.20099l-75.20474 -79.208435l0 37.602356l0 0c-100.74494 -10.90271 -180.89438 -42.852264 -211.925 -84.47858" fill-rule="evenodd"/><path fill="#ffd966" d="m663.70605 475.90027l75.20471 -79.208435l0 37.602356l0 0c100.744934 -10.90271 180.89441 -42.852264 211.92499 -84.47858l0 0c24.574158 32.96521 15.81012 68.71243 -24.245605 98.89401c-40.055786 30.18158 -107.89624 52.15506 -187.67938 60.789276l0 37.602356z" fill-rule="evenodd"/><path fill="#cbad51" d="m964.52496 387.41797l0 0c0 -69.63461 -134.68121 -126.084625 -300.8189 -126.084625l0 -75.20473l0 0c166.1377 0 300.8189 56.450012 300.8189 126.08464z" fill-rule="evenodd"/><path fill="#000000" fill-opacity="0.0" d="m964.52496 387.41797l0 0c0 -69.63461 -134.68121 -126.084625 -300.8189 -126.084625l0 -75.20473l0 0c166.1377 0 300.8189 56.450012 300.8189 126.08464l0 75.20471l0 0c0 57.494385 -92.79712 107.70734 -225.6142 122.08093l0 37.602356l-75.20471 -71.20099l75.20471 -79.208435l0 37.602356l0 0c100.744934 -10.90271 180.89441 -42.852264 211.92499 -84.47858" fill-rule="evenodd"/><path stroke="#cc0000" stroke-width="1.0" stroke-linejoin="round" stroke-linecap="butt" d="m964.52496 387.41797l0 0c0 -69.63461 -134.68121 -126.084625 -300.8189 -126.084625l0 -75.20473l0 0c166.1377 0 300.8189 56.450012 300.8189 126.08464l0 75.20471l0 0c0 57.494385 -92.79712 107.70734 -225.6142 122.08093l0 37.602356l-75.20471 -71.20099l75.20471 -79.208435l0 37.602356l0 0c100.744934 -10.90271 180.89441 -42.852264 211.92499 -84.47858" fill-rule="evenodd"/><path fill="#000000" fill-opacity="0.0" d="m401.46457 254.89764l157.07089 0l0 210.20471l-157.07089 0z" fill-rule="evenodd"/><path fill="#000000" d="m476.40207 372.57574l0 -13.4375l48.515594 -0.078125l0 42.5q-11.171875 8.90625 -23.046844 13.40625q-11.875 4.484375 -24.375 4.484375q-16.875 0 -30.671875 -7.21875q-13.78125 -7.234375 -20.8125 -20.90625q-7.03125 -13.671875 -7.03125 -30.546875q0 -16.71875 6.984375 -31.203125q7.0 -14.5 20.125 -21.53125q13.125 -7.03125 30.234375 -7.03125q12.421875 0 22.453125 4.03125q10.046875 4.015625 15.7499695 11.203125q5.703125 7.1875 8.671875 18.75l-13.6718445 3.75q-2.578125 -8.75 -6.40625 -13.75q-3.828125 -5.0 -10.9375 -8.0q-7.109375 -3.015625 -15.78125 -3.015625q-10.390625 0 -17.96875 3.171875q-7.578125 3.15625 -12.234375 8.3125q-4.640625 5.15625 -7.21875 11.328125q-4.375 10.625 -4.375 23.046875q0 15.3125 5.265625 25.625q5.28125 10.3125 15.359375 15.3125q10.078125 5.0 21.40625 5.0q9.84375 0 19.21875 -3.78125q9.375 -3.796875 14.21875 -8.09375l0 -21.328125l-33.671875 0z" fill-rule="nonzero"/></g></svg>